<?xml version="1.0" encoding="UTF-8"?>
<svg width="13px" height="15px" viewBox="0 0 13 15" version="1.1" xmlns="http://www.w3.org/2000/svg" xmlns:xlink="http://www.w3.org/1999/xlink">
    <!-- Generator: Sketch 40.3 (33839) - http://www.bohemiancoding.com/sketch -->
    <title>delete</title>
    <desc>Created with Sketch.</desc>
    <defs></defs>
    <g id="乐派派" stroke="none" stroke-width="1" fill="none" fill-rule="evenodd">
        <g id="选择地址" transform="translate(-290.000000, -171.000000)" fill="#FFFFFF">
            <g id="Group-2-Copy" transform="translate(220.000000, 138.000000)">
                <g id="delete" transform="translate(64.000000, 28.000000)">
                    <path d="M7.25,18.3203125 L7.25,8.75 L17.25,8.75 L17.25,18.3203125 C17.25,18.763023 17.0807309,19.1536441 16.7421875,19.4921875 C16.4036441,19.8307309 16.013023,20 15.5703125,20 L8.9296875,20 C8.48697695,20 8.09635586,19.8307309 7.7578125,19.4921875 C7.41926914,19.1536441 7.25,18.763023 7.25,18.3203125 L7.25,18.3203125 Z M18.5,6.25 L18.5,7.5 L6,7.5 L6,6.25 L9.125,6.25 L10.1796875,5 L14.3203125,5 L15.375,6.25 L18.5,6.25 Z" id="ion-android-delete---Ionicons"></path>
                </g>
            </g>
        </g>
    </g>
</svg>