<?xml version="1.0" encoding="UTF-8"?>
<svg width="18px" height="19px" viewBox="0 0 18 19" version="1.1" xmlns="http://www.w3.org/2000/svg" xmlns:xlink="http://www.w3.org/1999/xlink">
    <!-- Generator: Sketch 41.1 (35376) - http://www.bohemiancoding.com/sketch -->
    <title>edit</title>
    <desc>Created with Sketch.</desc>
    <defs></defs>
    <g id="乐派派" stroke="none" stroke-width="1" fill="none" fill-rule="evenodd">
        <g id="选择地址" transform="translate(-237.000000, -169.000000)" fill="#FFFFFF">
            <g id="Group-2-Copy" transform="translate(220.000000, 138.000000)">
                <g id="edit" transform="translate(14.000000, 28.000000)">
                    <path d="M17.8828125,9.8828125 L8.1171875,19.6875 L4.5625,16.1328125 L14.3671875,6.3671875 L17.8828125,9.8828125 Z M20.1875,5.9375 C20.4218762,6.17187617 20.5325521,6.45833164 20.5195312,6.796875 C20.5065104,7.13541836 20.369793,7.43489453 20.109375,7.6953125 L18.3515625,9.453125 L14.796875,5.8984375 L16.5546875,4.140625 C16.8151055,3.88020703 17.1145816,3.74348965 17.453125,3.73046875 C17.7916684,3.71744785 18.0781238,3.82812383 18.3125,4.0625 L20.1875,5.9375 Z M4.25,16.6796875 L7.5703125,20 L3,21.25 L4.25,16.6796875 Z" id="ion-edit---Ionicons"></path>
                </g>
            </g>
        </g>
    </g>
</svg>