<?xml version="1.0" encoding="UTF-8"?>
<svg width="16px" height="16px" viewBox="0 0 16 16" version="1.1" xmlns="http://www.w3.org/2000/svg" xmlns:xlink="http://www.w3.org/1999/xlink">
    <!-- Generator: Sketch 41 (35326) - http://www.bohemiancoding.com/sketch -->
    <title>vip-ico</title>
    <desc>Created with Sketch.</desc>
    <defs></defs>
    <g id="乐派派" stroke="none" stroke-width="1" fill="none" fill-rule="evenodd">
        <g id="确认订单2" transform="translate(-15.000000, -259.000000)" fill="#F34A00">
            <g id="Group-6" transform="translate(0.000000, 247.000000)">
                <g id="vip-ico" transform="translate(13.000000, 10.000000)">
                    <path d="M18,18 L10,18 L2,18 C2,17.2777742 2.0277775,16.7222242 2.08333333,16.3333333 C2.194445,15.777775 3.31943375,15.0972263 5.45833333,14.2916667 C5.79166833,14.180555 6.19444208,14.0416675 6.66666667,13.875 C7.30555875,13.6527767 7.680555,13.4791673 7.79166667,13.3541667 C7.90277833,13.229166 7.95833333,12.8611142 7.95833333,12.25 L7.95833333,12 C7.95833333,11.666665 7.83333458,11.3402794 7.58333333,11.0208333 C7.33333208,10.7013873 7.13888958,10.1388929 7,9.33333333 C6.94444417,9.05555417 6.86111167,8.83333417 6.75,8.66666667 C6.63888833,8.49999917 6.52777833,8.16666917 6.41666667,7.66666667 C6.33333292,7.41666542 6.32638854,7.18055667 6.39583333,6.95833333 C6.46527813,6.73611 6.5,6.5972225 6.5,6.54166667 C6.44444417,6.09722 6.38888917,5.63889125 6.33333333,5.16666667 C6.2777775,4.52777458 6.5555525,3.84028146 7.16666667,3.10416667 C7.77778083,2.36805188 8.72221583,2 10,2 C11.2777842,2 12.2222192,2.36805188 12.8333333,3.10416667 C13.4444475,3.84028146 13.7222225,4.52777458 13.6666667,5.16666667 C13.6111108,5.63889125 13.5555558,6.09722 13.5,6.54166667 C13.5,6.5972225 13.5347219,6.73611 13.6041667,6.95833333 C13.6736115,7.18055667 13.6666671,7.41666542 13.5833333,7.66666667 C13.4722217,8.16666917 13.3611117,8.49999917 13.25,8.66666667 C13.1388883,8.83333417 13.0555558,9.05555417 13,9.33333333 C12.8611104,10.1388929 12.6666679,10.7013873 12.4166667,11.0208333 C12.1666654,11.3402794 12.0416667,11.666665 12.0416667,12 C12.0416667,12.8333375 12.1249992,13.305555 12.2916667,13.4166667 C12.3472225,13.4722225 13.0277713,13.7361088 14.3333333,14.2083333 C14.3888892,14.2361113 14.4583329,14.2638887 14.5416667,14.2916667 C16.6805662,15.0972263 17.805555,15.777775 17.9166667,16.3333333 L18,18 Z" id="ion-person---Ionicons"></path>
                </g>
            </g>
        </g>
    </g>
</svg>