<?xml version="1.0" encoding="UTF-8"?>
<svg width="48px" height="48px" viewBox="0 0 48 48" version="1.1" xmlns="http://www.w3.org/2000/svg" xmlns:xlink="http://www.w3.org/1999/xlink">
    <!-- Generator: Sketch 40.3 (33839) - http://www.bohemiancoding.com/sketch -->
    <title>已还</title>
    <desc>Created with Sketch.</desc>
    <defs>
        <rect id="path-1" x="0" y="464" width="320" height="107"></rect>
        <filter x="-50%" y="-50%" width="200%" height="200%" filterUnits="objectBoundingBox" id="filter-2">
            <feOffset dx="0" dy="-1" in="SourceAlpha" result="shadowOffsetOuter1"></feOffset>
            <feColorMatrix values="0 0 0 0 0.878431373   0 0 0 0 0.878431373   0 0 0 0 0.878431373  0 0 0 1 0" type="matrix" in="shadowOffsetOuter1"></feColorMatrix>
        </filter>
        <rect id="path-3" x="8" y="0" width="16" height="17"></rect>
        <mask id="mask-4" maskContentUnits="userSpaceOnUse" maskUnits="objectBoundingBox" x="0" y="0" width="16" height="17" fill="white">
            <use xlink:href="#path-3"></use>
        </mask>
    </defs>
    <g id="乐派派" stroke="none" stroke-width="1" fill="none" fill-rule="evenodd">
        <g id="个人中心" transform="translate(-253.000000, -476.000000)">
            <rect id="Rectangle-Copy" fill="#F0F0F0" x="0" y="1" width="320" height="568"></rect>
            <g id="Rectangle-10-Copy-5">
                <use fill="black" fill-opacity="1" filter="url(#filter-2)" xlink:href="#path-1"></use>
                <use fill="#FFFFFF" fill-rule="evenodd" xlink:href="#path-1"></use>
            </g>
            <g id="Group-2" transform="translate(261.000000, 485.000000)">
                <path d="M30.9707031,19.8164062 L27.5136719,7.89257812 C27.4746092,7.6777333 27.3671884,7.50683657 27.1914062,7.37988281 C27.0156241,7.25292905 26.8300791,7.18945312 26.6347656,7.18945312 L5.07226562,7.18945312 C4.8574208,7.18945312 4.66699302,7.25781182 4.50097656,7.39453125 C4.33496011,7.53125068 4.22265654,7.69726465 4.1640625,7.89257812 L1.02929687,19.2304688 C0.99023418,19.3281255 0.980468652,19.4306635 1,19.5380859 C1.01953135,19.6455083 1.04882793,19.7480464 1.08789062,19.8457031 C1.06835928,19.9238285 1.04882822,20.0068355 1.02929687,20.0947266 C1.00976553,20.1826176 1,20.2753901 1,20.3730469 L1,30.6855469 C1,31.1933619 1.18066226,31.6328106 1.54199219,32.0039062 C1.90332212,32.3750019 2.34765361,32.5605469 2.875,32.5605469 L29.125,32.5605469 C29.6523464,32.5605469 30.0966779,32.3750019 30.4580078,32.0039062 C30.8193377,31.6328106 31,31.1933619 31,30.6855469 L31,20.3730469 L31,20.3144531 L31,20.2265625 L31,20.0361328 C31,19.9677731 30.9902345,19.8945316 30.9707031,19.8164062 L30.9707031,19.8164062 Z M5.8046875,9.06445312 L25.9023437,9.06445312 L28.6269531,18.4980469 L19.8964844,18.4980469 C19.876953,19.630865 19.505863,20.5488246 18.7832031,21.2519531 C18.0605433,21.9550816 17.1328182,22.3066406 16,22.3066406 C14.8671818,22.3066406 13.9443395,21.9550816 13.2314453,21.2519531 C12.5185511,20.5488246 12.1523438,19.630865 12.1328125,18.4980469 L3.16796875,18.4980469 L5.8046875,9.06445312 L5.8046875,9.06445312 Z M29.125,30.6855469 L2.875,30.6855469 L2.875,20.3730469 L10.5800781,20.3730469 C10.9902364,21.5644591 11.6689406,22.4970669 12.6162109,23.1708984 C13.5634813,23.8447299 14.6913997,24.1816406 16,24.1816406 C17.3086003,24.1816406 18.4414015,23.8447299 19.3984375,23.1708984 C20.3554735,22.4970669 21.0390604,21.5644591 21.4492187,20.3730469 L29.125,20.3730469 L29.125,30.6855469 L29.125,30.6855469 Z" id="Drawar---simple-line-icons-Copy" fill="#777677"></path>
                <use id="Rectangle" stroke="#777677" mask="url(#mask-4)" stroke-width="4" fill="#FFFFFF" xlink:href="#path-3"></use>
            </g>
        </g>
    </g>
</svg>