<?xml version="1.0" encoding="UTF-8"?>
<svg width="31px" height="33px" viewBox="0 0 31 33" version="1.1" xmlns="http://www.w3.org/2000/svg" xmlns:xlink="http://www.w3.org/1999/xlink">
    <!-- Generator: Sketch 41.1 (35376) - http://www.bohemiancoding.com/sketch -->
    <title>已还</title>
    <desc>Created with Sketch.</desc>
    <defs>
        <polygon id="path-1" points="15.0049 33.5605 0 33.5605 0 0.9995 15.0049 0.9995 30.0098 0.9995 30.0098 33.5605"></polygon>
    </defs>
    <g id="乐派派" stroke="none" stroke-width="1" fill="none" fill-rule="evenodd">
        <g id="个人中心" transform="translate(-262.000000, -484.000000)">
            <g id="已还" transform="translate(253.000000, 476.000000)">
                <g id="Page-1" transform="translate(9.000000, 7.000000)">
                    <mask id="mask-2" fill="white">
                        <use xlink:href="#path-1"></use>
                    </mask>
                    <g id="Clip-2"></g>
                    <path d="M28.1348,31.6855 L1.8848,31.6855 L1.8848,21.3725 L7.0098,21.3725 L9.0098,21.3725 L9.5898,21.3725 C9.9998,22.5645 10.6788,23.4975 11.6258,24.1705 C12.5728,24.8445 13.7008,25.1815 15.0098,25.1815 C16.3188,25.1815 17.4508,24.8445 18.4078,24.1705 C19.3648,23.4975 20.0488,22.5645 20.4588,21.3725 L21.0098,21.3725 L23.0098,21.3725 L28.1348,21.3725 L28.1348,31.6855 Z M4.8148,10.0645 L7.0098,10.0645 L7.0098,19.4975 L2.1778,19.4975 L4.8148,10.0645 Z M9.0098,10.0645 L9.0098,8.1895 L9.0098,3.1895 L9.0098,2.9995 L21.0098,2.9995 L21.0098,3.1895 L21.0098,8.1895 L21.0098,10.0645 L21.0098,19.4975 L18.9058,19.4975 C18.8868,20.6305 18.5158,21.5485 17.7928,22.2515 C17.0708,22.9555 16.1428,23.3065 15.0098,23.3065 C13.8768,23.3065 12.9538,22.9555 12.2408,22.2515 C11.5288,21.5485 11.1618,20.6305 11.1428,19.4975 L9.0098,19.4975 L9.0098,10.0645 Z M23.0098,10.0645 L24.9118,10.0645 L27.6368,19.4975 L23.0098,19.4975 L23.0098,10.0645 Z M29.9808,20.8165 L26.5238,8.8925 C26.4848,8.6775 26.3768,8.5065 26.2008,8.3795 C26.0258,8.2525 25.8398,8.1895 25.6448,8.1895 L23.0098,8.1895 L23.0098,3.1895 L23.0098,0.9995 L7.0098,0.9995 L7.0098,3.1895 L7.0098,8.1895 L4.0818,8.1895 C3.8668,8.1895 3.6768,8.2575 3.5108,8.3945 C3.3448,8.5315 3.2328,8.6975 3.1738,8.8925 L0.0388,20.2305 C-0.0002,20.3285 -0.0102,20.4305 0.0098,20.5385 C0.0298,20.6455 0.0588,20.7475 0.0978,20.8455 C0.0778,20.9235 0.0588,21.0065 0.0388,21.0945 C0.0198,21.1825 0.0098,21.2755 0.0098,21.3725 L0.0098,31.6855 C0.0098,32.1935 0.1908,32.6325 0.5518,33.0035 C0.9128,33.3745 1.3578,33.5605 1.8848,33.5605 L28.1348,33.5605 C28.6618,33.5605 29.1068,33.3745 29.4678,33.0035 C29.8288,32.6325 30.0098,32.1935 30.0098,31.6855 L30.0098,21.3725 L30.0098,21.3145 L30.0098,21.2265 L30.0098,21.0365 C30.0098,20.9675 29.9998,20.8945 29.9808,20.8165 L29.9808,20.8165 Z" id="Fill-1" fill="#777677" mask="url(#mask-2)"></path>
                </g>
            </g>
        </g>
    </g>
</svg>