<?xml version="1.0" encoding="UTF-8"?>
<svg width="48px" height="48px" viewBox="0 0 48 48" version="1.1" xmlns="http://www.w3.org/2000/svg" xmlns:xlink="http://www.w3.org/1999/xlink">
    <!-- Generator: Sketch 40.3 (33839) - http://www.bohemiancoding.com/sketch -->
    <title>待付</title>
    <desc>Created with Sketch.</desc>
    <defs>
        <rect id="path-1" x="0" y="464" width="320" height="107"></rect>
        <filter x="-50%" y="-50%" width="200%" height="200%" filterUnits="objectBoundingBox" id="filter-2">
            <feOffset dx="0" dy="-1" in="SourceAlpha" result="shadowOffsetOuter1"></feOffset>
            <feColorMatrix values="0 0 0 0 0.878431373   0 0 0 0 0.878431373   0 0 0 0 0.878431373  0 0 0 1 0" type="matrix" in="shadowOffsetOuter1"></feColorMatrix>
        </filter>
    </defs>
    <g id="乐派派" stroke="none" stroke-width="1" fill="none" fill-rule="evenodd">
        <g id="个人中心" transform="translate(-20.000000, -476.000000)">
            <rect id="Rectangle-Copy" fill="#F0F0F0" x="0" y="1" width="320" height="568"></rect>
            <g id="Rectangle-10-Copy-5">
                <use fill="black" fill-opacity="1" filter="url(#filter-2)" xlink:href="#path-1"></use>
                <use fill="#FFFFFF" fill-rule="evenodd" xlink:href="#path-1"></use>
            </g>
            <path d="M56.1875,490.03125 L31.8125,490.03125 C31.0312461,490.03125 30.3671902,490.304685 29.8203125,490.851562 C29.2734348,491.39844 29,492.062496 29,492.84375 L29,506.90625 C29,507.687504 29.2734348,508.35156 29.8203125,508.898438 C30.3671902,509.445315 31.0312461,509.71875 31.8125,509.71875 L56.1875,509.71875 C56.9687539,509.71875 57.6328098,509.445315 58.1796875,508.898438 C58.7265652,508.35156 59,507.687504 59,506.90625 L59,492.84375 C59,492.062496 58.7265652,491.39844 58.1796875,490.851562 C57.6328098,490.304685 56.9687539,490.03125 56.1875,490.03125 L56.1875,490.03125 Z M31.8125,491.90625 L56.1875,491.90625 C56.4414075,491.90625 56.6611319,491.999023 56.8466797,492.18457 C57.0322275,492.370118 57.125,492.589842 57.125,492.84375 L57.125,494.71875 L30.875,494.71875 L30.875,492.84375 C30.875,492.589842 30.9677725,492.370118 31.1533203,492.18457 C31.3388681,491.999023 31.5585925,491.90625 31.8125,491.90625 L31.8125,491.90625 Z M56.1875,507.84375 L31.8125,507.84375 C31.5585925,507.84375 31.3388681,507.750977 31.1533203,507.56543 C30.9677725,507.379882 30.875,507.160158 30.875,506.90625 L30.875,498.46875 L57.125,498.46875 L57.125,506.90625 C57.125,507.160158 57.0322275,507.379882 56.8466797,507.56543 C56.6611319,507.750977 56.4414075,507.84375 56.1875,507.84375 L56.1875,507.84375 Z" id="Credit-card---simple-line-icons" fill="#777677"></path>
        </g>
    </g>
</svg>