<?xml version="1.0" encoding="UTF-8"?>
<svg width="30px" height="20px" viewBox="0 0 30 20" version="1.1" xmlns="http://www.w3.org/2000/svg" xmlns:xlink="http://www.w3.org/1999/xlink">
    <!-- Generator: Sketch 41.2 (35397) - http://www.bohemiancoding.com/sketch -->
    <title>待付 copy</title>
    <desc>Created with Sketch.</desc>
    <defs></defs>
    <g id="乐派派" stroke="none" stroke-width="1" fill="none" fill-rule="evenodd">
        <g id="H02_个人中心" transform="translate(-28.000000, -489.000000)" fill="#777677">
            <g id="待付-copy" transform="translate(19.000000, 476.000000)">
                <path d="M36.1875,13 L11.8125,13 C11.0312461,13 10.3671902,13.2734348 9.8203125,13.8203125 C9.27343477,14.3671902 9,15.0312461 9,15.8125 L9,29.875 C9,30.6562539 9.27343477,31.3203098 9.8203125,31.8671875 C10.3671902,32.4140652 11.0312461,32.6875 11.8125,32.6875 L36.1875,32.6875 C36.9687539,32.6875 37.6328098,32.4140652 38.1796875,31.8671875 C38.7265652,31.3203098 39,30.6562539 39,29.875 L39,15.8125 C39,15.0312461 38.7265652,14.3671902 38.1796875,13.8203125 C37.6328098,13.2734348 36.9687539,13 36.1875,13 L36.1875,13 Z M11.8125,14.875 L36.1875,14.875 C36.4414075,14.875 36.6611319,14.9677725 36.8466797,15.1533203 C37.0322275,15.3388681 37.125,15.5585925 37.125,15.8125 L37.125,17.6875 L10.875,17.6875 L10.875,15.8125 C10.875,15.5585925 10.9677725,15.3388681 11.1533203,15.1533203 C11.3388681,14.9677725 11.5585925,14.875 11.8125,14.875 L11.8125,14.875 Z M36.1875,30.8125 L11.8125,30.8125 C11.5585925,30.8125 11.3388681,30.7197275 11.1533203,30.5341797 C10.9677725,30.3486319 10.875,30.1289075 10.875,29.875 L10.875,21.4375 L37.125,21.4375 L37.125,29.875 C37.125,30.1289075 37.0322275,30.3486319 36.8466797,30.5341797 C36.6611319,30.7197275 36.4414075,30.8125 36.1875,30.8125 L36.1875,30.8125 Z" id="Credit-card---simple-line-icons"></path>
            </g>
        </g>
    </g>
</svg>