<?xml version="1.0" encoding="UTF-8"?>
<svg width="30px" height="30px" viewBox="0 0 30 30" version="1.1" xmlns="http://www.w3.org/2000/svg" xmlns:xlink="http://www.w3.org/1999/xlink">
    <!-- Generator: Sketch 41.1 (35376) - http://www.bohemiancoding.com/sketch -->
    <title>待提</title>
    <desc>Created with Sketch.</desc>
    <defs></defs>
    <g id="乐派派" stroke="none" stroke-width="1" fill="none" fill-rule="evenodd">
        <g id="个人中心" transform="translate(-106.000000, -485.000000)" fill="#777677">
            <g id="待提" transform="translate(97.000000, 476.000000)">
                <path d="M36.3339844,10.875 L36.3339844,10.875 C36.4902352,10.875 36.6220698,10.8847655 36.7294922,10.9042969 C36.8369146,10.9238282 36.9199216,10.9433593 36.9785156,10.9628906 C37.0371097,11.1386728 37.0468752,11.5146456 37.0078125,12.0908203 C36.9687498,12.6669951 36.6171908,13.2871061 35.953125,13.9511719 L29.1855469,20.71875 L29.2441406,21.5390625 C29.3027347,22.4179731 29.3710934,23.5703054 29.4492188,24.9960938 C29.5273441,26.4218821 29.6152339,27.808587 29.7128906,29.15625 C29.7714847,30.3476622 29.8300778,31.4316357 29.8886719,32.4082031 C29.9472659,33.3847705 29.986328,33.9218745 30.0058594,34.0195312 C30.0058594,34.0781253 30.0009766,34.1269529 29.9912109,34.1660156 C29.9814453,34.2050783 29.9472659,34.2636715 29.8886719,34.3417969 C29.7519524,34.4980477 29.5664074,34.7080065 29.3320312,34.9716797 C29.0976551,35.2353529 28.8730479,35.4843738 28.6582031,35.71875 C28.482421,35.2499977 28.2724622,34.6835971 28.0283203,34.0195312 C27.7841785,33.3554654 27.525392,32.6572302 27.2519531,31.9248047 C26.9785143,31.1923792 26.714845,30.4746129 26.4609375,29.7714844 C26.20703,29.0683559 25.9824229,28.4433621 25.7871094,27.8964844 L24.7617188,25.1425781 L22.6816406,27.2226562 L18.8730469,30.8847656 L18.3164062,31.4414062 L18.3164062,32.1738281 L18.3164062,33.375 L18.3164062,34.8105469 L18.3164062,35.7333984 L18.3164062,36.3925781 C18.2968749,36.4121095 18.3115232,36.4267578 18.3603516,36.4365234 C18.4091799,36.4462891 18.4238282,36.4511719 18.4042969,36.4511719 C18.3652342,36.3925778 18.3261721,36.3291019 18.2871094,36.2607422 C18.2480467,36.1923825 18.2089846,36.119141 18.1699219,36.0410156 C17.7792949,35.4355438 17.3593772,34.771488 16.9101562,34.0488281 C16.4609353,33.3261683 16.1582039,32.8378919 16.0019531,32.5839844 L15.7382812,32.203125 L15.3574219,31.9394531 C14.6542934,31.5097635 13.9414099,31.0703147 13.21875,30.6210938 C12.4960901,30.1718728 11.8906274,29.7910172 11.4023438,29.4785156 C11.4218751,29.4785156 11.4365234,29.4931639 11.4462891,29.5224609 C11.4560547,29.551758 11.470703,29.5664062 11.4902344,29.5664062 L11.5488281,29.5664062 L12.1347656,29.5664062 L12.8964844,29.5664062 C13.26758,29.5664062 13.6484355,29.571289 14.0390625,29.5810547 C14.4296895,29.5908204 14.791014,29.5957031 15.1230469,29.5957031 L15.4599609,29.5957031 L15.7382812,29.5957031 L16.5,29.5664062 L17.0273438,29.0390625 L20.71875,25.2304688 L22.7988281,23.1503906 L20.0449219,22.1542969 C19.5175755,21.9589834 18.8974645,21.7294935 18.1845703,21.4658203 C17.4716761,21.2021471 16.7441443,20.9335951 16.0019531,20.6601562 C15.2597619,20.3867174 14.5468784,20.1230481 13.8632812,19.8691406 C13.1796841,19.6152331 12.6132835,19.4003915 12.1640625,19.2246094 C12.3984387,18.9902332 12.6425769,18.7607433 12.8964844,18.5361328 C13.1503919,18.3115223 13.3652335,18.1308601 13.5410156,17.9941406 C13.5800783,17.9550779 13.6191404,17.9257813 13.6582031,17.90625 C13.6972658,17.8867187 13.7265624,17.8769531 13.7460938,17.8769531 L13.8046875,17.8769531 C13.9218756,17.8769531 14.5175728,17.9111325 15.5917969,17.9794922 C16.666021,18.0478519 17.8281188,18.1210934 19.078125,18.1992188 C20.3867253,18.2968755 21.7197198,18.389648 23.0771484,18.4775391 C24.4345771,18.5654301 25.5331989,18.6289061 26.3730469,18.6679688 L27.2226562,18.7265625 L33.9902344,11.9589844 C34.4589867,11.490232 34.908201,11.1923834 35.3378906,11.0654297 C35.7675803,10.9384759 36.0996082,10.875 36.3339844,10.875 L36.3339844,10.875 Z M36.3339844,9 C35.7871066,9 35.1914095,9.12206909 34.546875,9.36621094 C33.9023405,9.61035278 33.2773468,10.0351532 32.671875,10.640625 L26.4902344,16.7929688 C25.6308551,16.7539061 24.4980539,16.6855474 23.0917969,16.5878906 C21.6855398,16.4902339 20.3134833,16.3974614 18.9755859,16.3095703 C17.6376886,16.2216792 16.4707081,16.1484378 15.4746094,16.0898438 C14.4785106,16.0312497 13.9511722,16.0019531 13.8925781,16.0019531 L13.8339844,16.0019531 L13.7460938,16.0019531 C13.589843,16.0019531 13.3896497,16.0312497 13.1455078,16.0898438 C12.901366,16.1484378 12.632814,16.2949207 12.3398438,16.5292969 C11.9882795,16.8222671 11.543948,17.2177709 11.0068359,17.7158203 C10.4697239,18.2138697 10.2011719,18.4628906 10.2011719,18.4628906 C10.0253897,18.6386728 9.89355513,18.8291005 9.80566406,19.0341797 C9.717773,19.2392588 9.69335918,19.4492177 9.73242188,19.6640625 C9.73242188,19.7812506 9.78124951,19.937499 9.87890625,20.1328125 C9.97656299,20.328126 10.1816391,20.4843744 10.4941406,20.6015625 C10.572266,20.6210938 10.9580043,20.762694 11.6513672,21.0263672 C12.34473,21.2900404 13.150386,21.5927717 14.0683594,21.9345703 C14.9863327,22.2763689 15.9335889,22.6279279 16.9101562,22.9892578 C17.8867236,23.3505877 18.7167935,23.6582019 19.4003906,23.9121094 L15.7089844,27.7207031 L15.4306641,27.7207031 L15.1230469,27.7207031 C14.5566378,27.7207031 13.9072302,27.7158204 13.1748047,27.7060547 C12.4423792,27.696289 11.9003924,27.6914062 11.5488281,27.6914062 L11.4316406,27.6914062 L11.34375,27.6914062 C11.2265619,27.6914062 11.0361341,27.7158201 10.7724609,27.7646484 C10.5087877,27.8134768 10.0937528,28.0722633 9.52734375,28.5410156 L9.43945312,28.6289062 C9.263671,28.8046884 9.14648467,28.9755851 9.08789062,29.1416016 C9.02929658,29.307618 9,29.4492182 9,29.5664062 C9,29.6835943 9.02441382,29.8203117 9.07324219,29.9765625 C9.12207056,30.1328133 9.23437412,30.2792962 9.41015625,30.4160156 C9.50781299,30.494141 10.0937446,30.8749966 11.1679688,31.5585938 C12.2421929,32.2421909 13.3164009,32.9062468 14.390625,33.5507812 C14.5273444,33.7656261 14.7519516,34.1269506 15.0644531,34.6347656 C15.3769547,35.1425807 15.7040999,35.6699191 16.0458984,36.2167969 C16.387697,36.7636746 16.6953111,37.251951 16.96875,37.6816406 C17.2421889,38.1113303 17.3886718,38.3457029 17.4082031,38.3847656 C17.5058599,38.5410164 17.627929,38.6630855 17.7744141,38.7509766 C17.9208992,38.8388676 18.0820304,38.8828125 18.2578125,38.8828125 L18.2578125,38.8828125 L18.2871094,38.8828125 C18.4433602,38.8828125 18.6093741,38.8388676 18.7851562,38.7509766 C18.9609384,38.6630855 19.1367179,38.5410164 19.3125,38.3847656 C19.820315,37.7988252 20.088867,37.3740248 20.1181641,37.1103516 C20.1474611,36.8466784 20.1621094,36.6660161 20.1621094,36.5683594 C20.1816407,36.2363265 20.1865235,35.5625051 20.1767578,34.546875 C20.1669921,33.5312449 20.1718749,32.7597683 20.1914062,32.2324219 L24,28.5410156 C24.2539075,29.2050814 24.5566389,30.0253857 24.9082031,31.0019531 C25.2597674,31.9785205 25.6064436,32.9208939 25.9482422,33.8291016 C26.2900408,34.7373092 26.5878894,35.5331997 26.8417969,36.2167969 C27.0957044,36.900394 27.2421873,37.2910151 27.28125,37.3886719 C27.3984381,37.6816421 27.5498038,37.8769526 27.7353516,37.9746094 C27.9208994,38.0722661 28.072265,38.1308593 28.1894531,38.1503906 L28.2626953,38.1503906 L28.3359375,38.1503906 C28.5117196,38.1503906 28.6923819,38.1064458 28.8779297,38.0185547 C29.0634775,37.9306636 29.2343742,37.8085945 29.390625,37.6523438 C29.390625,37.6523438 29.6396459,37.3837917 30.1376953,36.8466797 C30.6357447,36.3095676 31.0312485,35.8652361 31.3242188,35.5136719 C31.617189,35.1621076 31.7832029,34.8496107 31.8222656,34.5761719 C31.8613283,34.302733 31.8710938,34.0878914 31.8515625,33.9316406 C31.8515625,33.8925779 31.8222659,33.3798877 31.7636719,32.3935547 C31.7050778,31.4072216 31.6367191,30.2451239 31.5585938,28.9072266 C31.4804684,27.5693292 31.3974614,26.2070382 31.3095703,24.8203125 C31.2216792,23.4335868 31.1582033,22.3105512 31.1191406,21.4511719 L37.3007812,15.2695312 C38.3945367,14.1757758 38.9365235,13.0625057 38.9267578,11.9296875 C38.9169921,10.7968693 38.7167988,10.0351582 38.3261719,9.64453125 C38.1308584,9.44921777 37.8623064,9.29296934 37.5205078,9.17578125 C37.1787092,9.05859316 36.7832054,9 36.3339844,9 L36.3339844,9 L36.3339844,9 Z" id="Plane---simple-line-icons"></path>
            </g>
        </g>
    </g>
</svg>