<?xml version="1.0" encoding="UTF-8"?>
<svg width="48px" height="48px" viewBox="0 0 48 48" version="1.1" xmlns="http://www.w3.org/2000/svg" xmlns:xlink="http://www.w3.org/1999/xlink">
    <!-- Generator: Sketch 40.3 (33839) - http://www.bohemiancoding.com/sketch -->
    <title>待提</title>
    <desc>Created with Sketch.</desc>
    <defs>
        <rect id="path-1" x="0" y="464" width="320" height="107"></rect>
        <filter x="-50%" y="-50%" width="200%" height="200%" filterUnits="objectBoundingBox" id="filter-2">
            <feOffset dx="0" dy="-1" in="SourceAlpha" result="shadowOffsetOuter1"></feOffset>
            <feColorMatrix values="0 0 0 0 0.878431373   0 0 0 0 0.878431373   0 0 0 0 0.878431373  0 0 0 1 0" type="matrix" in="shadowOffsetOuter1"></feColorMatrix>
        </filter>
    </defs>
    <g id="乐派派" stroke="none" stroke-width="1" fill="none" fill-rule="evenodd">
        <g id="个人中心" transform="translate(-98.000000, -476.000000)">
            <rect id="Rectangle-Copy" fill="#F0F0F0" x="0" y="1" width="320" height="568"></rect>
            <g id="Rectangle-10-Copy-5">
                <use fill="black" fill-opacity="1" filter="url(#filter-2)" xlink:href="#path-1"></use>
                <use fill="#FFFFFF" fill-rule="evenodd" xlink:href="#path-1"></use>
            </g>
            <path d="M135.363281,487.808594 L135.363281,487.808594 C135.519532,487.808594 135.651367,487.818359 135.758789,487.837891 C135.866211,487.857422 135.949218,487.876953 136.007812,487.896484 C136.066407,488.072267 136.076172,488.448239 136.037109,489.024414 C135.998047,489.600589 135.646488,490.2207 134.982422,490.884766 L128.214844,497.652344 L128.273438,498.472656 C128.332032,499.351567 128.40039,500.503899 128.478516,501.929688 C128.556641,503.355476 128.644531,504.742181 128.742188,506.089844 C128.800782,507.281256 128.859375,508.365229 128.917969,509.341797 C128.976563,510.318364 129.015625,510.855468 129.035156,510.953125 C129.035156,511.011719 129.030273,511.060547 129.020508,511.099609 C129.010742,511.138672 128.976563,511.197265 128.917969,511.275391 C128.781249,511.431641 128.595704,511.6416 128.361328,511.905273 C128.126952,512.168947 127.902345,512.417968 127.6875,512.652344 C127.511718,512.183591 127.301759,511.617191 127.057617,510.953125 C126.813475,510.289059 126.554689,509.590824 126.28125,508.858398 C126.007811,508.125973 125.744142,507.408207 125.490234,506.705078 C125.236327,506.00195 125.01172,505.376956 124.816406,504.830078 L123.791016,502.076172 L121.710938,504.15625 L117.902344,507.818359 L117.345703,508.375 L117.345703,509.107422 L117.345703,510.308594 L117.345703,511.744141 L117.345703,512.666992 L117.345703,513.326172 C117.326172,513.345703 117.34082,513.360352 117.389648,513.370117 C117.438477,513.379883 117.453125,513.384766 117.433594,513.384766 C117.394531,513.326172 117.355469,513.262696 117.316406,513.194336 C117.277344,513.125976 117.238281,513.052735 117.199219,512.974609 C116.808592,512.369138 116.388674,511.705082 115.939453,510.982422 C115.490232,510.259762 115.187501,509.771486 115.03125,509.517578 L114.767578,509.136719 L114.386719,508.873047 C113.68359,508.443357 112.970707,508.003908 112.248047,507.554688 C111.525387,507.105467 110.919924,506.724611 110.431641,506.412109 C110.451172,506.412109 110.46582,506.426758 110.475586,506.456055 C110.485352,506.485352 110.5,506.5 110.519531,506.5 L110.578125,506.5 L111.164062,506.5 L111.925781,506.5 C112.296877,506.5 112.677732,506.504883 113.068359,506.514648 C113.458986,506.524414 113.820311,506.529297 114.152344,506.529297 L114.489258,506.529297 L114.767578,506.529297 L115.529297,506.5 L116.056641,505.972656 L119.748047,502.164062 L121.828125,500.083984 L119.074219,499.087891 C118.546872,498.892577 117.926761,498.663087 117.213867,498.399414 C116.500973,498.135741 115.773441,497.867189 115.03125,497.59375 C114.289059,497.320311 113.576175,497.056642 112.892578,496.802734 C112.208981,496.548827 111.64258,496.333985 111.193359,496.158203 C111.427736,495.923827 111.671874,495.694337 111.925781,495.469727 C112.179689,495.245116 112.39453,495.064454 112.570312,494.927734 C112.609375,494.888672 112.648437,494.859375 112.6875,494.839844 C112.726563,494.820312 112.755859,494.810547 112.775391,494.810547 L112.833984,494.810547 C112.951172,494.810547 113.54687,494.844726 114.621094,494.913086 C115.695318,494.981446 116.857416,495.054687 118.107422,495.132812 C119.416022,495.230469 120.749017,495.323242 122.106445,495.411133 C123.463874,495.499024 124.562496,495.5625 125.402344,495.601562 L126.251953,495.660156 L133.019531,488.892578 C133.488284,488.423826 133.937498,488.125977 134.367188,487.999023 C134.796877,487.87207 135.128905,487.808594 135.363281,487.808594 L135.363281,487.808594 Z M135.363281,485.933594 C134.816404,485.933594 134.220706,486.055663 133.576172,486.299805 C132.931637,486.543947 132.306644,486.968747 131.701172,487.574219 L125.519531,493.726562 C124.660152,493.6875 123.527351,493.619141 122.121094,493.521484 C120.714837,493.423828 119.34278,493.331055 118.004883,493.243164 C116.666985,493.155273 115.500005,493.082032 114.503906,493.023438 C113.507808,492.964843 112.980469,492.935547 112.921875,492.935547 L112.863281,492.935547 L112.775391,492.935547 C112.61914,492.935547 112.418947,492.964843 112.174805,493.023438 C111.930663,493.082032 111.662111,493.228514 111.369141,493.462891 C111.017576,493.755861 110.573245,494.151365 110.036133,494.649414 C109.499021,495.147463 109.230469,495.396484 109.230469,495.396484 C109.054687,495.572267 108.922852,495.762694 108.834961,495.967773 C108.74707,496.172853 108.722656,496.382811 108.761719,496.597656 C108.761719,496.714844 108.810546,496.871093 108.908203,497.066406 C109.00586,497.26172 109.210936,497.417968 109.523438,497.535156 C109.601563,497.554688 109.987301,497.696288 110.680664,497.959961 C111.374027,498.223634 112.179683,498.526365 113.097656,498.868164 C114.01563,499.209963 114.962886,499.561522 115.939453,499.922852 C116.916021,500.284181 117.74609,500.591796 118.429688,500.845703 L114.738281,504.654297 L114.459961,504.654297 L114.152344,504.654297 C113.585935,504.654297 112.936527,504.649414 112.204102,504.639648 C111.471676,504.629883 110.929689,504.625 110.578125,504.625 L110.460938,504.625 L110.373047,504.625 C110.255859,504.625 110.065431,504.649414 109.801758,504.698242 C109.538085,504.747071 109.12305,505.005857 108.556641,505.474609 L108.46875,505.5625 C108.292968,505.738282 108.175782,505.909179 108.117188,506.075195 C108.058593,506.241212 108.029297,506.382812 108.029297,506.5 C108.029297,506.617188 108.053711,506.753905 108.102539,506.910156 C108.151367,507.066407 108.263671,507.21289 108.439453,507.349609 C108.53711,507.427735 109.123042,507.80859 110.197266,508.492188 C111.27149,509.175785 112.345698,509.839841 113.419922,510.484375 C113.556641,510.69922 113.781248,511.060544 114.09375,511.568359 C114.406252,512.076174 114.733397,512.603513 115.075195,513.150391 C115.416994,513.697268 115.724608,514.185545 115.998047,514.615234 C116.271486,515.044924 116.417969,515.279297 116.4375,515.318359 C116.535157,515.47461 116.657226,515.596679 116.803711,515.68457 C116.950196,515.772461 117.111327,515.816406 117.287109,515.816406 L117.287109,515.816406 L117.316406,515.816406 C117.472657,515.816406 117.638671,515.772461 117.814453,515.68457 C117.990235,515.596679 118.166015,515.47461 118.341797,515.318359 C118.849612,514.732419 119.118164,514.307619 119.147461,514.043945 C119.176758,513.780272 119.191406,513.59961 119.191406,513.501953 C119.210938,513.16992 119.21582,512.496099 119.206055,511.480469 C119.196289,510.464839 119.201172,509.693362 119.220703,509.166016 L123.029297,505.474609 C123.283204,506.138675 123.585936,506.958979 123.9375,507.935547 C124.289064,508.912114 124.63574,509.854488 124.977539,510.762695 C125.319338,511.670903 125.617186,512.466793 125.871094,513.150391 C126.125001,513.833988 126.271484,514.224609 126.310547,514.322266 C126.427735,514.615236 126.579101,514.810546 126.764648,514.908203 C126.950196,515.00586 127.101562,515.064453 127.21875,515.083984 L127.291992,515.083984 L127.365234,515.083984 C127.541017,515.083984 127.721679,515.04004 127.907227,514.952148 C128.092774,514.864257 128.263671,514.742188 128.419922,514.585938 C128.419922,514.585938 128.668943,514.317385 129.166992,513.780273 C129.665042,513.243161 130.060545,512.79883 130.353516,512.447266 C130.646486,512.095701 130.8125,511.783204 130.851562,511.509766 C130.890625,511.236327 130.900391,511.021485 130.880859,510.865234 C130.880859,510.826172 130.851563,510.313481 130.792969,509.327148 C130.734375,508.340815 130.666016,507.178718 130.587891,505.84082 C130.509765,504.502923 130.426758,503.140632 130.338867,501.753906 C130.250976,500.367181 130.1875,499.244145 130.148438,498.384766 L136.330078,492.203125 C137.423834,491.10937 137.96582,489.996099 137.956055,488.863281 C137.946289,487.730463 137.746096,486.968752 137.355469,486.578125 C137.160155,486.382812 136.891603,486.226563 136.549805,486.109375 C136.208006,485.992187 135.812502,485.933594 135.363281,485.933594 L135.363281,485.933594 L135.363281,485.933594 Z" id="Plane---simple-line-icons" fill="#777677"></path>
        </g>
    </g>
</svg>