<?xml version="1.0" encoding="UTF-8"?>
<svg width="48px" height="48px" viewBox="0 0 48 48" version="1.1" xmlns="http://www.w3.org/2000/svg" xmlns:xlink="http://www.w3.org/1999/xlink">
    <!-- Generator: Sketch 40.3 (33839) - http://www.bohemiancoding.com/sketch -->
    <title>待还</title>
    <desc>Created with Sketch.</desc>
    <defs>
        <rect id="path-1" x="0" y="464" width="320" height="107"></rect>
        <filter x="-50%" y="-50%" width="200%" height="200%" filterUnits="objectBoundingBox" id="filter-2">
            <feOffset dx="0" dy="-1" in="SourceAlpha" result="shadowOffsetOuter1"></feOffset>
            <feColorMatrix values="0 0 0 0 0.878431373   0 0 0 0 0.878431373   0 0 0 0 0.878431373  0 0 0 1 0" type="matrix" in="shadowOffsetOuter1"></feColorMatrix>
        </filter>
    </defs>
    <g id="乐派派" stroke="none" stroke-width="1" fill="none" fill-rule="evenodd">
        <g id="个人中心" transform="translate(-176.000000, -476.000000)">
            <rect id="Rectangle-Copy" fill="#F0F0F0" x="0" y="0" width="320" height="568"></rect>
            <g id="Rectangle-10-Copy-5">
                <use fill="black" fill-opacity="1" filter="url(#filter-2)" xlink:href="#path-1"></use>
                <use fill="#FFFFFF" fill-rule="evenodd" xlink:href="#path-1"></use>
            </g>
            <path d="M214.970703,502.816406 L211.513672,490.892578 C211.474609,490.677733 211.367188,490.506837 211.191406,490.379883 C211.015624,490.252929 210.830079,490.189453 210.634766,490.189453 L189.072266,490.189453 C188.857421,490.189453 188.666993,490.257812 188.500977,490.394531 C188.33496,490.531251 188.222657,490.697265 188.164062,490.892578 L185.029297,502.230469 C184.990234,502.328125 184.980469,502.430664 185,502.538086 C185.019531,502.645508 185.048828,502.748046 185.087891,502.845703 C185.068359,502.923829 185.048828,503.006835 185.029297,503.094727 C185.009766,503.182618 185,503.27539 185,503.373047 L185,513.685547 C185,514.193362 185.180662,514.632811 185.541992,515.003906 C185.903322,515.375002 186.347654,515.560547 186.875,515.560547 L213.125,515.560547 C213.652346,515.560547 214.096678,515.375002 214.458008,515.003906 C214.819338,514.632811 215,514.193362 215,513.685547 L215,503.373047 L215,503.314453 L215,503.226562 L215,503.036133 C215,502.967773 214.990234,502.894532 214.970703,502.816406 L214.970703,502.816406 Z M189.804688,492.064453 L209.902344,492.064453 L212.626953,501.498047 L203.896484,501.498047 C203.876953,502.630865 203.505863,503.548825 202.783203,504.251953 C202.060543,504.955082 201.132818,505.306641 200,505.306641 C198.867182,505.306641 197.94434,504.955082 197.231445,504.251953 C196.518551,503.548825 196.152344,502.630865 196.132812,501.498047 L187.167969,501.498047 L189.804688,492.064453 L189.804688,492.064453 Z M213.125,513.685547 L186.875,513.685547 L186.875,503.373047 L194.580078,503.373047 C194.990236,504.564459 195.668941,505.497067 196.616211,506.170898 C197.563481,506.84473 198.6914,507.181641 200,507.181641 C201.3086,507.181641 202.441401,506.84473 203.398438,506.170898 C204.355474,505.497067 205.03906,504.564459 205.449219,503.373047 L213.125,503.373047 L213.125,513.685547 L213.125,513.685547 Z" id="Drawar---simple-line-icons" fill="#777677"></path>
        </g>
    </g>
</svg>