<?xml version="1.0" encoding="UTF-8"?>
<svg width="31px" height="26px" viewBox="0 0 31 26" version="1.1" xmlns="http://www.w3.org/2000/svg" xmlns:xlink="http://www.w3.org/1999/xlink">
    <!-- Generator: Sketch 41.2 (35397) - http://www.bohemiancoding.com/sketch -->
    <title>待还</title>
    <desc>Created with Sketch.</desc>
    <defs></defs>
    <g id="乐派派" stroke="none" stroke-width="1" fill="none" fill-rule="evenodd">
        <g id="G00_退押金" transform="translate(-184.000000, -492.000000)" fill="#777677">
            <g id="待还" transform="translate(175.000000, 476.000000)">
                <path d="M38.9804688,28.6269531 L35.5234376,16.703125 C35.4843749,16.4882802 35.3769541,16.3173834 35.201172,16.1904297 C35.0253898,16.0634759 34.8398448,16 34.6445313,16 L13.0820313,16 C12.8671865,16 12.6767587,16.0683587 12.5107423,16.2050781 C12.3447258,16.3417976 12.2324223,16.5078115 12.1738282,16.703125 L9.03906259,28.0410156 C8.99999989,28.1386724 8.99023436,28.2412104 9.00976571,28.3486328 C9.02929706,28.4560552 9.05859364,28.5585933 9.09765634,28.65625 C9.07812499,28.7343754 9.05859393,28.8173824 9.03906259,28.9052734 C9.01953124,28.9931645 9.00976571,29.085937 9.00976571,29.1835938 L9.00976571,39.4960938 C9.00976571,40.0039088 9.19042797,40.4433575 9.5517579,40.8144531 C9.91308783,41.1855487 10.3574193,41.3710938 10.8847657,41.3710938 L37.1347657,41.3710938 C37.6621121,41.3710938 38.1064436,41.1855487 38.4677735,40.8144531 C38.8291035,40.4433575 39.0097657,40.0039088 39.0097657,39.4960938 L39.0097657,29.1835938 L39.0097657,29.125 L39.0097657,29.0371094 L39.0097657,28.8466797 C39.0097657,28.77832 39.0000002,28.7050785 38.9804688,28.6269531 L38.9804688,28.6269531 Z M13.8144532,17.875 L33.9121095,17.875 L36.6367188,27.3085938 L27.9062501,27.3085938 C27.8867187,28.4414119 27.5156287,29.3593715 26.7929688,30.0625 C26.070309,30.7656285 25.1425839,31.1171875 24.0097657,31.1171875 C22.8769475,31.1171875 21.9541052,30.7656285 21.241211,30.0625 C20.5283168,29.3593715 20.1621096,28.4414119 20.1425782,27.3085938 L11.1777345,27.3085938 L13.8144532,17.875 L13.8144532,17.875 Z M37.1347657,39.4960938 L10.8847657,39.4960938 L10.8847657,29.1835938 L18.5898438,29.1835938 C19.0000021,30.375006 19.6787063,31.3076138 20.6259766,31.9814453 C21.573247,32.6552768 22.7011654,32.9921875 24.0097657,32.9921875 C25.318366,32.9921875 26.4511672,32.6552768 27.4082032,31.9814453 C28.3652392,31.3076138 29.0488262,30.375006 29.4589845,29.1835938 L37.1347657,29.1835938 L37.1347657,39.4960938 L37.1347657,39.4960938 Z" id="Drawar---simple-line-icons"></path>
            </g>
        </g>
    </g>
</svg>