<?xml version="1.0" encoding="UTF-8"?>
<svg width="25px" height="24px" viewBox="0 0 25 24" version="1.1" xmlns="http://www.w3.org/2000/svg" xmlns:xlink="http://www.w3.org/1999/xlink">
    <!-- Generator: Sketch 41 (35326) - http://www.bohemiancoding.com/sketch -->
    <title>cart-icon-blue</title>
    <desc>Created with Sketch.</desc>
    <defs></defs>
    <g id="乐派派" stroke="none" stroke-width="1" fill="none" fill-rule="evenodd">
        <g id="确认订单2" transform="translate(-25.000000, -89.000000)" fill="#24C1C3">
            <g id="cart-icon-blue" transform="translate(22.000000, 86.000000)">
                <path d="M10.1484375,22.1601562 C10.8125033,22.1601562 11.3789039,22.3945289 11.8476562,22.8632812 C12.3164086,23.3320336 12.5507812,23.8984342 12.5507812,24.5625 C12.5507812,25.2265658 12.3164086,25.8027319 11.8476562,26.2910156 C11.3789039,26.7792993 10.8125033,27.0234375 10.1484375,27.0234375 C9.48437168,27.0234375 8.90820557,26.7792993 8.41992188,26.2910156 C7.93163818,25.8027319 7.6875,25.2265658 7.6875,24.5625 C7.6875,23.8984342 7.93163818,23.3320336 8.41992188,22.8632812 C8.90820557,22.3945289 9.48437168,22.1601562 10.1484375,22.1601562 L10.1484375,22.1601562 Z M3,3 L6.984375,3 L8.09765625,5.4609375 L26.1445312,5.4609375 C26.4570328,5.4609375 26.7402331,5.57812383 26.9941406,5.8125 C27.2480481,6.04687617 27.375,6.32031094 27.375,6.6328125 C27.375,6.86718867 27.3359379,7.06249922 27.2578125,7.21875 L22.8632812,14.7773438 C22.4335916,15.636723 21.7304736,16.0664062 20.7539062,16.0664062 L11.671875,16.0664062 L10.4414062,17.9414062 C10.3632809,18.1367197 10.3242188,18.2539061 10.3242188,18.2929688 C10.3242188,18.4882822 10.421874,18.5859375 10.6171875,18.5859375 L24.5625,18.5859375 L24.5625,20.9296875 L10.3242188,20.9296875 C9.54296484,20.9296875 8.90820557,20.7148459 8.41992188,20.2851562 C7.93163818,19.8554666 7.6875,19.2500039 7.6875,18.46875 C7.6875,17.9999977 7.78515527,17.6093766 7.98046875,17.296875 L9.796875,14.3085938 L5.4609375,5.4609375 L3,5.4609375 L3,3 Z M22.1015625,22.1601562 C22.7656283,22.1601562 23.3417944,22.3945289 23.8300781,22.8632812 C24.3183618,23.3320336 24.5625,23.8984342 24.5625,24.5625 C24.5625,25.2265658 24.3183618,25.8027319 23.8300781,26.2910156 C23.3417944,26.7792993 22.7656283,27.0234375 22.1015625,27.0234375 C21.4374967,27.0234375 20.8710961,26.7792993 20.4023438,26.2910156 C19.9335914,25.8027319 19.6992188,25.2265658 19.6992188,24.5625 C19.6992188,23.8984342 19.9335914,23.3320336 20.4023438,22.8632812 C20.8710961,22.3945289 21.4374967,22.1601562 22.1015625,22.1601562 L22.1015625,22.1601562 Z" id="cart-yellow-ico"></path>
            </g>
        </g>
    </g>
</svg>